<?xml version="1.0" encoding="UTF-8" standalone="no"?>
<svg
   xmlns="http://www.w3.org/2000/svg"
   xmlns:xlink="http://www.w3.org/1999/xlink"
   xmlns:inkscape="http://www.inkscape.org/namespaces/inkscape"
   xmlns:sodipodi="http://sodipodi.sourceforge.net/DTD/sodipodi-0.dtd"
   width="48in" height="48in" viewBox="0 0 4608 4608" version="1.1"
   id="svg8">
  <sodipodi:namedview id="namedview1" pagecolor="#ffffff" bordercolor="#999999" borderopacity="1.0"
     inkscape:pageopacity="0" inkscape:pageshadow="0" inkscape:zoom="0.1" inkscape:cx="2400" inkscape:cy="2400"
     inkscape:document-units="in" showgrid="false" />

  <g inkscape:groupmode="layer" inkscape:label="BACKGROUND" id="layer_bg">
    <rect x="0" y="0" width="4608" height="4608" fill="#ffffff"/>
    <rect x="0" y="624" width="4608" height="3696" fill="#f8fafc"/>
  </g>
  <g inkscape:groupmode="layer" inkscape:label="RIBBONS (guides)" id="layer_ribbons" opacity="0.35">
    <path d="M 250,1550 C 900,1200 1250,1500 1600,1300 C 2050,1050 2350,1500 2700,1300 C 3200,1000 3600,1350 4400,1100" fill="none" stroke="#06b6d4" stroke-width="8" stroke-linecap="round" />
    <path d="M 400,2600 C 1200,2100 1600,2500 2100,2350 C 2600,2200 3000,2600 3400,2450 C 3900,2250 4100,2550 4450,2400" fill="none" stroke="#f59e0b" stroke-width="14" stroke-linecap="round" />
    <path d="M 500,3500 C 1300,3300 1700,3600 2300,3450 C 2900,3300 3300,3600 4000,3500" fill="none" stroke="#dc2626" stroke-width="10" stroke-linecap="round" stroke-dasharray="18,14" />
    <text x="120" y="690" font-family="Arial" font-size="28" fill="#6b7280">Hide this layer for final export</text>
  </g>
  <g inkscape:groupmode="layer" inkscape:label="TITLE BAR" id="layer_title">
    <rect x="0" y="0" width="4608" height="624" fill="#ffffff"/>
    <image x="0" y="0" width="4608" height="624" preserveAspectRatio="xMidYMid meet" xlink:href="../02_ASSETS/titlebar/poster-title.png" />
    <rect x="0" y="621" width="4608" height="3" fill="#111827" opacity="0.25"/>
  </g>
  <g inkscape:groupmode="layer" inkscape:label="PANELS" id="layer_panels">
    <g id="P01_GROUP" inkscape:label="P01">
      <path d="M 265,720 H 995 Q 1080,720 1080,805 V 1685 Q 1080,1770 995,1770 H 265 Q 180,1770 180,1685 V 805 Q 180,720 265,720 Z" transform="translate(12,14)" fill="#000000" opacity="0.10"/>
      <path d="M 265,720 H 995 Q 1080,720 1080,805 V 1685 Q 1080,1770 995,1770 H 265 Q 180,1770 180,1685 V 805 Q 180,720 265,720 Z" fill="#ffffff" opacity="0.95"/>
      <path id="P01_CLIP" d="M 265,720 H 995 Q 1080,720 1080,805 V 1685 Q 1080,1770 995,1770 H 265 Q 180,1770 180,1685 V 805 Q 180,720 265,720 Z" fill="#ffffff" opacity="0.001"/>
      <path id="P01_FRAME" d="M 265,720 H 995 Q 1080,720 1080,805 V 1685 Q 1080,1770 995,1770 H 265 Q 180,1770 180,1685 V 805 Q 180,720 265,720 Z" fill="none" stroke="#111827" stroke-width="10"/>
      <text x="206" y="772" font-family="Arial" font-size="34" fill="#111827">P01</text>
      <text x="206" y="1744" font-family="Arial" font-size="26" fill="#6b7280">Insert: P01.png · Clip with P01_CLIP</text>
    </g>
    <g id="P02_GROUP" inkscape:label="P02">
      <path d="M 1215,700 Q 2370.0,560 3525,700 Q 3620,700 3620,795 V 1755 Q 3620,1850 3525,1850 H 1215 Q 1120,1850 1120,1755 V 795 Q 1120,700 1215,700 Z" transform="translate(12,14)" fill="#000000" opacity="0.10"/>
      <path d="M 1215,700 Q 2370.0,560 3525,700 Q 3620,700 3620,795 V 1755 Q 3620,1850 3525,1850 H 1215 Q 1120,1850 1120,1755 V 795 Q 1120,700 1215,700 Z" fill="#ffffff" opacity="0.95"/>
      <path id="P02_CLIP" d="M 1215,700 Q 2370.0,560 3525,700 Q 3620,700 3620,795 V 1755 Q 3620,1850 3525,1850 H 1215 Q 1120,1850 1120,1755 V 795 Q 1120,700 1215,700 Z" fill="#ffffff" opacity="0.001"/>
      <path id="P02_FRAME" d="M 1215,700 Q 2370.0,560 3525,700 Q 3620,700 3620,795 V 1755 Q 3620,1850 3525,1850 H 1215 Q 1120,1850 1120,1755 V 795 Q 1120,700 1215,700 Z" fill="none" stroke="#111827" stroke-width="10"/>
      <text x="1146" y="752" font-family="Arial" font-size="34" fill="#111827">P02</text>
      <text x="1146" y="1824" font-family="Arial" font-size="26" fill="#6b7280">Insert: P02.png · Clip with P02_CLIP</text>
    </g>
    <g id="P03_GROUP" inkscape:label="P03">
      <path d="M 3750,740 H 4350 Q 4430,740 4430,820 V 1690 Q 4430,1770 4350,1770 H 3750 Q 3670,1770 3670,1690 V 820 Q 3670,740 3750,740 Z" transform="translate(12,14)" fill="#000000" opacity="0.10"/>
      <path d="M 3750,740 H 4350 Q 4430,740 4430,820 V 1690 Q 4430,1770 4350,1770 H 3750 Q 3670,1770 3670,1690 V 820 Q 3670,740 3750,740 Z" fill="#ffffff" opacity="0.95"/>
      <path id="P03_CLIP" d="M 3750,740 H 4350 Q 4430,740 4430,820 V 1690 Q 4430,1770 4350,1770 H 3750 Q 3670,1770 3670,1690 V 820 Q 3670,740 3750,740 Z" fill="#ffffff" opacity="0.001"/>
      <path id="P03_FRAME" d="M 3750,740 H 4350 Q 4430,740 4430,820 V 1690 Q 4430,1770 4350,1770 H 3750 Q 3670,1770 3670,1690 V 820 Q 3670,740 3750,740 Z" fill="none" stroke="#111827" stroke-width="10"/>
      <text x="3696" y="792" font-family="Arial" font-size="34" fill="#111827">P03</text>
      <text x="3696" y="1744" font-family="Arial" font-size="26" fill="#6b7280">Insert: P03.png · Clip with P03_CLIP</text>
    </g>
    <g id="P04_GROUP" inkscape:label="P04">
      <path d="M 350,1890 Q 1540.0,1750 2730,1890 Q 2840,1890 2840,2000 V 3330 Q 2840,3440 2730,3440 H 350 Q 240,3440 240,3330 V 2000 Q 240,1890 350,1890 Z" transform="translate(12,14)" fill="#000000" opacity="0.10"/>
      <path d="M 350,1890 Q 1540.0,1750 2730,1890 Q 2840,1890 2840,2000 V 3330 Q 2840,3440 2730,3440 H 350 Q 240,3440 240,3330 V 2000 Q 240,1890 350,1890 Z" fill="#ffffff" opacity="0.95"/>
      <path id="P04_CLIP" d="M 350,1890 Q 1540.0,1750 2730,1890 Q 2840,1890 2840,2000 V 3330 Q 2840,3440 2730,3440 H 350 Q 240,3440 240,3330 V 2000 Q 240,1890 350,1890 Z" fill="#ffffff" opacity="0.001"/>
      <path id="P04_FRAME" d="M 350,1890 Q 1540.0,1750 2730,1890 Q 2840,1890 2840,2000 V 3330 Q 2840,3440 2730,3440 H 350 Q 240,3440 240,3330 V 2000 Q 240,1890 350,1890 Z" fill="none" stroke="#111827" stroke-width="10"/>
      <text x="266" y="1942" font-family="Arial" font-size="34" fill="#111827">P04</text>
      <text x="266" y="3414" font-family="Arial" font-size="26" fill="#6b7280">Insert: P04.png · Clip with P04_CLIP</text>
    </g>
    <g id="P05_GROUP" inkscape:label="P05">
      <path d="M 3040,1930 H 4285 Q 4380,1930 4380,2025 V 3285 Q 4380,3380 4285,3380 H 2975 Q 2880,3380 2880,3285 V 2090 L 3040,1930 Z" transform="translate(12,14)" fill="#000000" opacity="0.10"/>
      <path d="M 3040,1930 H 4285 Q 4380,1930 4380,2025 V 3285 Q 4380,3380 4285,3380 H 2975 Q 2880,3380 2880,3285 V 2090 L 3040,1930 Z" fill="#ffffff" opacity="0.95"/>
      <path id="P05_CLIP" d="M 3040,1930 H 4285 Q 4380,1930 4380,2025 V 3285 Q 4380,3380 4285,3380 H 2975 Q 2880,3380 2880,3285 V 2090 L 3040,1930 Z" fill="#ffffff" opacity="0.001"/>
      <path id="P05_FRAME" d="M 3040,1930 H 4285 Q 4380,1930 4380,2025 V 3285 Q 4380,3380 4285,3380 H 2975 Q 2880,3380 2880,3285 V 2090 L 3040,1930 Z" fill="none" stroke="#111827" stroke-width="10"/>
      <text x="2906" y="1982" font-family="Arial" font-size="34" fill="#111827">P05</text>
      <text x="2906" y="3354" font-family="Arial" font-size="26" fill="#6b7280">Insert: P05.png · Clip with P05_CLIP</text>
    </g>
    <g id="P10_GROUP" inkscape:label="P10">
      <path d="M 370,3720 C 1305.0,3640 1723.0,3736.0 2350.0,3720 C 2977.0,3704.0 3395.0,3800 4330,3720 Q 4440,3720 4440,3830 V 4138 Q 4440,4248 4330,4248 H 370 Q 260,4248 260,4138 V 3830 Q 260,3720 370,3720 Z" transform="translate(12,14)" fill="#000000" opacity="0.10"/>
      <path d="M 370,3720 C 1305.0,3640 1723.0,3736.0 2350.0,3720 C 2977.0,3704.0 3395.0,3800 4330,3720 Q 4440,3720 4440,3830 V 4138 Q 4440,4248 4330,4248 H 370 Q 260,4248 260,4138 V 3830 Q 260,3720 370,3720 Z" fill="#ffffff" opacity="0.95"/>
      <path id="P10_CLIP" d="M 370,3720 C 1305.0,3640 1723.0,3736.0 2350.0,3720 C 2977.0,3704.0 3395.0,3800 4330,3720 Q 4440,3720 4440,3830 V 4138 Q 4440,4248 4330,4248 H 370 Q 260,4248 260,4138 V 3830 Q 260,3720 370,3720 Z" fill="#ffffff" opacity="0.001"/>
      <path id="P10_FRAME" d="M 370,3720 C 1305.0,3640 1723.0,3736.0 2350.0,3720 C 2977.0,3704.0 3395.0,3800 4330,3720 Q 4440,3720 4440,3830 V 4138 Q 4440,4248 4330,4248 H 370 Q 260,4248 260,4138 V 3830 Q 260,3720 370,3720 Z" fill="none" stroke="#111827" stroke-width="10"/>
      <text x="286" y="3772" font-family="Arial" font-size="34" fill="#111827">P10</text>
      <text x="286" y="4222" font-family="Arial" font-size="26" fill="#6b7280">Insert: P10.png · Clip with P10_CLIP</text>
    </g>
    <g id="P06_GROUP" inkscape:label="P06">
      <path d="M 440,3140 L 1600,3140 Q 1640,3140 1600,3180 L 1540,3780 Q 1500,3820 1460,3820 L 300,3820 Q 260,3820 260,3780 L 360,3180 Q 400,3140 440,3140 Z" transform="translate(12,14)" fill="#000000" opacity="0.10"/>
      <path d="M 440,3140 L 1600,3140 Q 1640,3140 1600,3180 L 1540,3780 Q 1500,3820 1460,3820 L 300,3820 Q 260,3820 260,3780 L 360,3180 Q 400,3140 440,3140 Z" fill="#ffffff" opacity="0.95"/>
      <path id="P06_CLIP" d="M 440,3140 L 1600,3140 Q 1640,3140 1600,3180 L 1540,3780 Q 1500,3820 1460,3820 L 300,3820 Q 260,3820 260,3780 L 360,3180 Q 400,3140 440,3140 Z" fill="#ffffff" opacity="0.001"/>
      <path id="P06_FRAME" d="M 440,3140 L 1600,3140 Q 1640,3140 1600,3180 L 1540,3780 Q 1500,3820 1460,3820 L 300,3820 Q 260,3820 260,3780 L 360,3180 Q 400,3140 440,3140 Z" fill="none" stroke="#111827" stroke-width="10"/>
      <text x="286" y="3192" font-family="Arial" font-size="34" fill="#111827">P06</text>
      <text x="286" y="3794" font-family="Arial" font-size="26" fill="#6b7280">Insert: P06.png · Clip with P06_CLIP</text>
    </g>
    <g id="P07_GROUP" inkscape:label="P07">
      <path d="M 1820,3000 Q 2555.0,2890 3290,3000 Q 3380,3000 3380,3090 V 3730 Q 3380,3820 3290,3820 H 1820 Q 1730,3820 1730,3730 V 3090 Q 1730,3000 1820,3000 Z" transform="translate(12,14)" fill="#000000" opacity="0.10"/>
      <path d="M 1820,3000 Q 2555.0,2890 3290,3000 Q 3380,3000 3380,3090 V 3730 Q 3380,3820 3290,3820 H 1820 Q 1730,3820 1730,3730 V 3090 Q 1730,3000 1820,3000 Z" fill="#ffffff" opacity="0.95"/>
      <path id="P07_CLIP" d="M 1820,3000 Q 2555.0,2890 3290,3000 Q 3380,3000 3380,3090 V 3730 Q 3380,3820 3290,3820 H 1820 Q 1730,3820 1730,3730 V 3090 Q 1730,3000 1820,3000 Z" fill="#ffffff" opacity="0.001"/>
      <path id="P07_FRAME" d="M 1820,3000 Q 2555.0,2890 3290,3000 Q 3380,3000 3380,3090 V 3730 Q 3380,3820 3290,3820 H 1820 Q 1730,3820 1730,3730 V 3090 Q 1730,3000 1820,3000 Z" fill="none" stroke="#111827" stroke-width="10"/>
      <text x="1756" y="3052" font-family="Arial" font-size="34" fill="#111827">P07</text>
      <text x="1756" y="3794" font-family="Arial" font-size="26" fill="#6b7280">Insert: P07.png · Clip with P07_CLIP</text>
    </g>
    <g id="P08_GROUP" inkscape:label="P08">
      <path d="M 3640,3140 L 4370,3140 Q 4410,3140 4370,3180 L 4310,3780 Q 4270,3820 4230,3820 L 3500,3820 Q 3460,3820 3460,3780 L 3560,3180 Q 3600,3140 3640,3140 Z" transform="translate(12,14)" fill="#000000" opacity="0.10"/>
      <path d="M 3640,3140 L 4370,3140 Q 4410,3140 4370,3180 L 4310,3780 Q 4270,3820 4230,3820 L 3500,3820 Q 3460,3820 3460,3780 L 3560,3180 Q 3600,3140 3640,3140 Z" fill="#ffffff" opacity="0.95"/>
      <path id="P08_CLIP" d="M 3640,3140 L 4370,3140 Q 4410,3140 4370,3180 L 4310,3780 Q 4270,3820 4230,3820 L 3500,3820 Q 3460,3820 3460,3780 L 3560,3180 Q 3600,3140 3640,3140 Z" fill="#ffffff" opacity="0.001"/>
      <path id="P08_FRAME" d="M 3640,3140 L 4370,3140 Q 4410,3140 4370,3180 L 4310,3780 Q 4270,3820 4230,3820 L 3500,3820 Q 3460,3820 3460,3780 L 3560,3180 Q 3600,3140 3640,3140 Z" fill="none" stroke="#111827" stroke-width="10"/>
      <text x="3486" y="3192" font-family="Arial" font-size="34" fill="#111827">P08</text>
      <text x="3486" y="3794" font-family="Arial" font-size="26" fill="#6b7280">Insert: P08.png · Clip with P08_CLIP</text>
    </g>
    <g id="P09_GROUP" inkscape:label="P09">
      <ellipse cx="3972.0" cy="3804.0" rx="390.0" ry="390.0" fill="#000000" opacity="0.10"/>
      <ellipse id="P09_CLIP" cx="3960.0" cy="3790.0" rx="390.0" ry="390.0" fill="#ffffff" opacity="0.001"/>
      <ellipse id="P09_FRAME" cx="3960.0" cy="3790.0" rx="390.0" ry="390.0" fill="none" stroke="#111827" stroke-width="10"/>
      <text x="3590" y="3440" font-family="Arial" font-size="34" fill="#111827">P09</text>
      <text x="3596" y="4154" font-family="Arial" font-size="26" fill="#6b7280">Insert: P09.png · Clip with P09_CLIP</text>
    </g>
  </g>
  <g inkscape:groupmode="layer" inkscape:label="FOOTER" id="layer_footer">
    <rect x="0" y="4320" width="4608" height="288" fill="#f3f4f6" stroke="#111827" stroke-width="2"/>
    <text x="72" y="4410" font-family="Arial" font-size="54" fill="#111827">Authors · Affiliations · Contact</text>
    <text x="72" y="4480" font-family="Arial" font-size="34" fill="#111827">Legend: cyan = information · amber = power · red = dissipation</text>
    <text x="72" y="4544" font-family="Arial" font-size="28" fill="#6b7280">QRs: paper · code · data</text>
  </g>
  <g inkscape:groupmode="layer" inkscape:label="GUIDES (hide)" id="layer_guides" opacity="0.5" style="display:none">
    <rect x="48" y="48" width="4512" height="4512" fill="none" stroke="#22c55e" stroke-width="4" stroke-dasharray="16,10"/>
    <text x="58" y="88" font-family="Arial" font-size="28" fill="#16a34a">Safe margin (0.5 in)</text>
  </g>
</svg>